<?xml version="1.0" encoding="utf-8"?>
<!-- Generator: Adobe Illustrator 18.1.1, SVG Export Plug-In . SVG Version: 6.00 Build 0)  -->
<svg width="1000" height="400" version="1.1" id="svg" xmlns="http://www.w3.org/2000/svg" xmlns:xlink="http://www.w3.org/1999/xlink" x="0px" y="0px"
	 viewBox="0 0 505.3 191.3" enable-background="new 0 0 505.3 191.3" xml:space="preserve">
<path fill="#222AA5" id="wiggle" d="M484.2,184.3c-2.1-0.7-4.2-1.4-6.1-1.7c-9.3-1.8-18.4-5.4-27.2-8.8l-0.3-0.1c-9.9-3.8-19.4-8.3-28.2-13.4
	c-11.4,4.8-23.8,8.3-37,10.5c-40.2,6.6-84.2,6.2-127-1.3c-31.4-5.5-60.3-14.6-88.4-27.8c-15.7-7.4-31.4-15.6-46.6-23.5
	C86.2,98.8,47.7,78.7,5.8,69.1c-0.1,0-0.2-0.1-0.2-0.3c0-0.1,0.1-0.2,0.3-0.2c42,9.7,80.5,29.8,117.7,49.2
	c15.2,7.9,30.8,16.1,46.5,23.5c28.1,13.2,57,22.2,88.3,27.7c42.8,7.5,86.7,7.9,126.9,1.3c13-2.2,25.3-5.6,36.6-10.3
	c-27.4-15.8-48.7-36.7-59.3-59.1c-8.8-18.6-10.2-36.8-3.9-52.6c6.5-16.6,20.8-29.6,41.3-37.7C416.8,4,436.8,1.5,453.5,4
	c14.4,2.1,33.4,8.8,42.5,28.8c5.6,12.4,6.3,26.9,1.9,43.2c-4.4,16.2-12.8,30.6-19,39.8c-13.1,19.3-32.4,34.4-55.9,44.3
	c8.7,5,18,9.4,27.8,13.2l0.3,0.1c8.8,3.4,17.9,6.9,27.2,8.8c1.9,0.4,4,1,6.1,1.7c4.2,1.4,8.6,2.8,12.3,2.1c0.1,0,0.2,0.1,0.3,0.2
	c0,0.1-0.1,0.2-0.2,0.3c-0.7,0.1-1.4,0.2-2.2,0.2C491.3,186.6,487.7,185.4,484.2,184.3z M400.2,11.1c-20.3,8-34.5,21-41,37.4
	c-6.2,15.7-4.9,33.8,3.9,52.3c10.6,22.4,32,43.3,59.4,59.1c23.6-9.9,42.9-25,56-44.3c9.8-14.5,31.2-51.4,17.1-82.5
	c-9-19.9-27.9-26.5-42.2-28.6c-4.2-0.6-8.6-0.9-13.1-0.9C427,3.5,412.7,6.1,400.2,11.1z" />

</svg>
